<?xml version="1.0" standalone="no"?>
<!DOCTYPE svg PUBLIC "-//W3C//DTD SVG 20010904//EN"
 "http://www.w3.org/TR/2001/REC-SVG-20010904/DTD/svg10.dtd">
<svg version="1.0" xmlns="http://www.w3.org/2000/svg"
 width="500.000000pt" height="500.000000pt" viewBox="0 0 500.000000 500.000000"
 preserveAspectRatio="xMidYMid meet">
<metadata>
Created by potrace 1.11, written by Peter Selinger 2001-2013
</metadata>
<g transform="translate(0.000000,500.000000) scale(0.100000,-0.100000)"
fill="#000000" stroke="none">
<path d="M2308 4995 c-2 -2 -34 -6 -73 -9 -103 -10 -316 -52 -430 -85 -322
-93 -648 -266 -910 -484 -92 -77 -283 -274 -357 -369 -163 -209 -319 -491
-398 -723 -47 -136 -96 -329 -106 -413 -3 -31 -8 -60 -10 -63 -24 -41 -24
-656 0 -698 2 -3 6 -29 10 -58 3 -28 8 -57 11 -65 2 -7 6 -24 9 -38 44 -258
193 -616 357 -863 206 -309 489 -581 798 -767 254 -153 557 -270 811 -314 19
-3 44 -8 55 -10 190 -36 632 -42 780 -11 11 3 38 7 59 10 21 3 48 7 60 10 12
3 32 7 46 9 77 15 181 43 288 80 622 215 1128 657 1422 1241 71 142 76 153
120 273 48 133 102 336 116 442 2 19 7 46 9 60 27 148 27 552 0 705 -13 79
-18 102 -22 130 -3 17 -18 82 -34 145 -90 349 -266 690 -509 985 -42 51 -266
272 -309 305 -17 14 -44 35 -59 48 -76 64 -403 270 -442 278 -3 0 -39 17 -80
36 -41 19 -128 54 -193 76 -193 68 -340 102 -567 129 -40 5 -447 12 -452 8z"/>
</g>
</svg>
